<svg xmlns="http://www.w3.org/2000/svg" xmlns:xlink="http://www.w3.org/1999/xlink" id="Layer_2" data-name="Layer 2" viewBox="0 0 893.69 446.82"><defs><style>      .cls-1 {        fill: none;      }      .cls-1, .cls-2 {        stroke-width: 0px;      }      .cls-3 {        clip-path: url(#clippath-1);      }      .cls-4 {        clip-path: url(#clippath);      }      .cls-2 {        fill: #d9c5b9;      }    </style><clipPath id="clippath"><rect class="cls-1" width="893.69" height="446.82"></rect></clipPath><clipPath id="clippath-1"><rect class="cls-1" x="-1366.99" y="-271.71" width="2383.73" height="1969.97"></rect></clipPath></defs><g id="Layer_1-2" data-name="Layer 1"><g class="cls-4"><g class="cls-3"><g><path class="cls-2" d="m-4.14,199.92l36.18,22.93-1.39,2.65-36.18-22.93,1.39-2.65Z"></path><path class="cls-2" d="m-5.53,261.05l36.18-22.93,1.39,2.65-36.18,22.93-1.39-2.65Z"></path><path class="cls-2" d="m-4.14,322.19l36.18,22.93-1.39,2.65-36.18-22.93,1.39-2.65Z"></path><path class="cls-2" d="m-5.53,383.33l36.18-22.93,1.39,2.65-36.18,22.93-1.39-2.65Z"></path><path class="cls-2" d="m-5.53,444.47l36.18-22.93,1.39,2.65-36.18,22.93-1.39-2.65Z"></path><g><path class="cls-2" d="m42.71,171.99l-36.18-22.93,1.39-2.65,36.18,22.93-1.39,2.65Z"></path><path class="cls-2" d="m42.71,169.35l36.18-22.93,1.39,2.65-36.18,22.93-1.39-2.65Z"></path><path class="cls-2" d="m44.8,170.67v45.85h-2.79v-45.85h2.79Z"></path></g><g><path class="cls-2" d="m42.71,233.13l-36.18-22.93,1.39-2.65,36.18,22.93-1.39,2.65Z"></path><path class="cls-2" d="m42.71,230.49l36.18-22.93,1.39,2.65-36.18,22.93-1.39-2.65Z"></path><path class="cls-2" d="m44.8,231.81v45.85h-2.79v-45.85h2.79Z"></path></g><g><path class="cls-2" d="m42.71,294.27l-36.18-22.93,1.39-2.65,36.18,22.93-1.39,2.65Z"></path><path class="cls-2" d="m42.71,291.62l36.18-22.93,1.39,2.65-36.18,22.93-1.39-2.65Z"></path><path class="cls-2" d="m44.8,292.95v45.85h-2.79v-45.85h2.79Z"></path></g><g><path class="cls-2" d="m42.71,355.41l-36.18-22.93,1.39-2.65,36.18,22.93-1.39,2.65Z"></path><path class="cls-2" d="m42.71,352.76l36.18-22.93,1.39,2.65-36.18,22.93-1.39-2.65Z"></path><path class="cls-2" d="m44.8,354.09v45.85h-2.79v-45.85h2.79Z"></path></g><g><path class="cls-2" d="m42.71,416.55l-36.18-22.93,1.39-2.65,36.18,22.93-1.39,2.65Z"></path><path class="cls-2" d="m42.71,413.9l36.18-22.93,1.39,2.65-36.18,22.93-1.39-2.65Z"></path><path class="cls-2" d="m44.8,415.22v45.85h-2.79v-45.85h2.79Z"></path></g><g><path class="cls-2" d="m90.95,141.42l-36.18-22.93,1.39-2.65,36.18,22.93-1.39,2.65Z"></path><path class="cls-2" d="m90.95,138.78l36.18-22.93,1.39,2.65-36.18,22.93-1.39-2.65Z"></path><path class="cls-2" d="m93.04,140.1v45.85h-2.79v-45.85h2.79Z"></path></g><g><path class="cls-2" d="m90.95,202.56l-36.18-22.93,1.39-2.65,36.18,22.93-1.39,2.65Z"></path><path class="cls-2" d="m90.95,199.92l36.18-22.93,1.39,2.65-36.18,22.93-1.39-2.65Z"></path><path class="cls-2" d="m93.04,201.24v45.85h-2.79v-45.85h2.79Z"></path></g><g><path class="cls-2" d="m90.95,263.7l-36.18-22.93,1.39-2.65,36.18,22.93-1.39,2.65Z"></path><path class="cls-2" d="m90.95,261.05l36.18-22.93,1.39,2.65-36.18,22.93-1.39-2.65Z"></path><path class="cls-2" d="m93.04,262.38v45.85h-2.79v-45.85h2.79Z"></path></g><g><path class="cls-2" d="m90.95,324.84l-36.18-22.93,1.39-2.65,36.18,22.93-1.39,2.65Z"></path><path class="cls-2" d="m90.95,322.19l36.18-22.93,1.39,2.65-36.18,22.93-1.39-2.65Z"></path><path class="cls-2" d="m93.04,323.52v45.85h-2.79v-45.85h2.79Z"></path></g><g><path class="cls-2" d="m90.95,385.98l-36.18-22.93,1.39-2.65,36.18,22.93-1.39,2.65Z"></path><path class="cls-2" d="m90.95,383.33l36.18-22.93,1.39,2.65-36.18,22.93-1.39-2.65Z"></path><path class="cls-2" d="m93.04,384.66v45.85h-2.79v-45.85h2.79Z"></path></g><g><path class="cls-2" d="m90.95,447.12l-36.18-22.93,1.39-2.65,36.18,22.93-1.39,2.65Z"></path><path class="cls-2" d="m90.95,444.47l36.18-22.93,1.39,2.65-36.18,22.93-1.39-2.65Z"></path><path class="cls-2" d="m93.04,445.79v45.85h-2.79v-45.85h2.79Z"></path></g><path class="cls-2" d="m104.4,194.92l-1.39-2.65"></path><g><path class="cls-2" d="m139.19,233.13l-36.18-22.93,1.39-2.65,36.18,22.93-1.39,2.65Z"></path><path class="cls-2" d="m139.19,230.49l36.18-22.93,1.39,2.65-36.18,22.93-1.39-2.65Z"></path><path class="cls-2" d="m141.28,231.81v45.85h-2.79v-45.85h2.79Z"></path></g><g><path class="cls-2" d="m139.19,294.27l-36.18-22.93,1.39-2.65,36.18,22.93-1.39,2.65Z"></path><path class="cls-2" d="m139.19,291.62l36.18-22.93,1.39,2.65-36.18,22.93-1.39-2.65Z"></path><path class="cls-2" d="m141.28,292.95v45.85h-2.79v-45.85h2.79Z"></path></g><g><path class="cls-2" d="m139.19,355.41l-36.18-22.93,1.39-2.65,36.18,22.93-1.39,2.65Z"></path><path class="cls-2" d="m139.19,352.76l36.18-22.93,1.39,2.65-36.18,22.93-1.39-2.65Z"></path><path class="cls-2" d="m141.28,354.09v45.85h-2.79v-45.85h2.79Z"></path></g><g><path class="cls-2" d="m139.19,416.55l-36.18-22.93,1.39-2.65,36.18,22.93-1.39,2.65Z"></path><path class="cls-2" d="m139.19,413.9l36.18-22.93,1.39,2.65-36.18,22.93-1.39-2.65Z"></path><path class="cls-2" d="m141.28,415.22v45.85h-2.79v-45.85h2.79Z"></path></g><path class="cls-2" d="m188.83,202.56l-36.18,22.93-1.39-2.65,36.18-22.93,1.39,2.65Z"></path><g><path class="cls-2" d="m187.43,263.7l-36.18-22.93,1.39-2.65,36.18,22.93-1.39,2.65Z"></path><path class="cls-2" d="m187.43,261.05l36.18-22.93,1.39,2.65-36.18,22.93-1.39-2.65Z"></path><path class="cls-2" d="m189.52,262.38v45.85h-2.79v-45.85h2.79Z"></path></g><g><path class="cls-2" d="m188.83,322.19l36.18,22.93-1.39,2.65-36.18-22.93,1.39-2.65Z"></path><path class="cls-2" d="m188.83,324.84l-36.18,22.93-1.39-2.65,36.18-22.93,1.39,2.65Z"></path><path class="cls-2" d="m186.74,323.52v-45.85h2.79v45.85h-2.79Z"></path></g><g><path class="cls-2" d="m187.43,385.98l-36.18-22.93,1.39-2.65,36.18,22.93-1.39,2.65Z"></path><path class="cls-2" d="m187.43,383.33l36.18-22.93,1.39,2.65-36.18,22.93-1.39-2.65Z"></path><path class="cls-2" d="m189.52,384.66v45.85h-2.79v-45.85h2.79Z"></path></g><g><path class="cls-2" d="m187.43,447.12l-36.18-22.93,1.39-2.65,36.18,22.93-1.39,2.65Z"></path><path class="cls-2" d="m187.43,444.47l36.18-22.93,1.39,2.65-36.18,22.93-1.39-2.65Z"></path><path class="cls-2" d="m189.52,445.79v45.85h-2.79v-45.85h2.79Z"></path></g><g><path class="cls-2" d="m237.07,233.13l-1.39-2.65"></path><path class="cls-2" d="m237.76,231.81v45.85h-2.79v-45.85h2.79Z"></path></g><g><path class="cls-2" d="m235.68,294.27l-36.18-22.93,1.39-2.65,36.18,22.93-1.39,2.65Z"></path><path class="cls-2" d="m235.68,291.62l36.18-22.93,1.39,2.65-36.18,22.93-1.39-2.65Z"></path><path class="cls-2" d="m237.76,292.95v45.85h-2.79v-45.85h2.79Z"></path></g><g><path class="cls-2" d="m235.68,355.41l-36.18-22.93,1.39-2.65,36.18,22.93-1.39,2.65Z"></path><path class="cls-2" d="m235.68,352.76l36.18-22.93,1.39,2.65-36.18,22.93-1.39-2.65Z"></path><path class="cls-2" d="m237.76,354.09v45.85h-2.79v-45.85h2.79Z"></path></g><g><path class="cls-2" d="m237.07,413.9l36.18,22.93-1.39,2.65-36.18-22.93,1.39-2.65Z"></path><path class="cls-2" d="m237.07,416.55l-36.18,22.93-1.39-2.65,36.18-22.93,1.39,2.65Z"></path><path class="cls-2" d="m234.98,415.22v-45.85h2.79v45.85h-2.79Z"></path></g><path class="cls-2" d="m286.01,323.52v45.85h-2.79v-45.85h2.79Z"></path><g><path class="cls-2" d="m285.31,383.33l36.18,22.93-1.39,2.65-36.18-22.93,1.39-2.65Z"></path><path class="cls-2" d="m285.31,385.98l-36.18,22.93-1.39-2.65,36.18-22.93,1.39,2.65Z"></path><path class="cls-2" d="m283.22,384.66v-45.85h2.79v45.85h-2.79Z"></path></g><g><path class="cls-2" d="m283.92,447.12l-36.18-22.93,1.39-2.65,36.18,22.93-1.39,2.65Z"></path><path class="cls-2" d="m283.92,444.47l36.18-22.93,1.39,2.65-36.18,22.93-1.39-2.65Z"></path><path class="cls-2" d="m286.01,445.79v45.85h-2.79v-45.85h2.79Z"></path></g><g><path class="cls-2" d="m332.16,416.55l-36.18-22.93,1.39-2.65,36.18,22.93-1.39,2.65Z"></path><path class="cls-2" d="m332.16,413.9l36.18-22.93,1.39,2.65-36.18,22.93-1.39-2.65Z"></path><path class="cls-2" d="m334.25,415.22v45.85h-2.79v-45.85h2.79Z"></path></g><g><path class="cls-2" d="m381.79,383.33l36.18,22.93-1.39,2.65-36.18-22.93,1.39-2.65Z"></path><path class="cls-2" d="m381.79,385.98l-36.18,22.93-1.39-2.65,36.18-22.93,1.39,2.65Z"></path></g><g><path class="cls-2" d="m380.4,447.12l-36.18-22.93,1.39-2.65,36.18,22.93-1.39,2.65Z"></path><path class="cls-2" d="m380.4,444.47l36.18-22.93,1.39,2.65-36.18,22.93-1.39-2.65Z"></path><path class="cls-2" d="m382.49,445.79v45.85h-2.79v-45.85h2.79Z"></path></g><g><path class="cls-2" d="m428.64,416.55l-36.18-22.93,1.39-2.65,36.18,22.93-1.39,2.65Z"></path><path class="cls-2" d="m428.64,413.9l36.18-22.93,1.39,2.65-36.18,22.93-1.39-2.65Z"></path><path class="cls-2" d="m430.73,415.22v45.85h-2.79v-45.85h2.79Z"></path></g><path class="cls-2" d="m478.97,384.66v45.85h-2.79v-45.85h2.79Z"></path><g><path class="cls-2" d="m476.88,447.12l-36.18-22.93,1.39-2.65,36.18,22.93-1.39,2.65Z"></path><path class="cls-2" d="m476.88,444.47l36.18-22.93,1.39,2.65-36.18,22.93-1.39-2.65Z"></path><path class="cls-2" d="m478.97,445.79v45.85h-2.79v-45.85h2.79Z"></path></g><g><path class="cls-2" d="m525.12,416.55l-36.18-22.93,1.39-2.65,36.18,22.93-1.39,2.65Z"></path><path class="cls-2" d="m525.12,413.9l36.18-22.93,1.39,2.65-36.18,22.93-1.39-2.65Z"></path><path class="cls-2" d="m527.21,415.22v45.85h-2.79v-45.85h2.79Z"></path></g><path class="cls-2" d="m574.76,385.98l-36.18,22.93-1.39-2.65,36.18-22.93,1.39,2.65Z"></path><g><path class="cls-2" d="m573.37,447.12l-36.18-22.93,1.39-2.65,36.18,22.93-1.39,2.65Z"></path><path class="cls-2" d="m573.37,444.47l36.18-22.93,1.39,2.65-36.18,22.93-1.39-2.65Z"></path><path class="cls-2" d="m575.45,445.79v45.85h-2.79v-45.85h2.79Z"></path></g><g><path class="cls-2" d="m623,413.9l-1.39,2.65"></path><path class="cls-2" d="m621.61,413.9l36.18-22.93,1.39,2.65-36.18,22.93-1.39-2.65Z"></path><path class="cls-2" d="m623.7,415.22v45.85h-2.79v-45.85h2.79Z"></path></g><g><path class="cls-2" d="m671.24,383.33l36.18,22.93-1.39,2.65-36.18-22.93,1.39-2.65Z"></path><path class="cls-2" d="m671.24,385.98l-36.18,22.93-1.39-2.65,36.18-22.93,1.39,2.65Z"></path></g><g><path class="cls-2" d="m669.85,447.12l-36.18-22.93,1.39-2.65,36.18,22.93-1.39,2.65Z"></path><path class="cls-2" d="m669.85,444.47l36.18-22.93,1.39,2.65-36.18,22.93-1.39-2.65Z"></path><path class="cls-2" d="m671.94,445.79v45.85h-2.79v-45.85h2.79Z"></path></g><g><path class="cls-2" d="m718.09,416.55l-36.18-22.93,1.39-2.65,36.18,22.93-1.39,2.65Z"></path><path class="cls-2" d="m718.09,413.9l36.18-22.93,1.39,2.65-36.18,22.93-1.39-2.65Z"></path><path class="cls-2" d="m720.18,415.22v45.85h-2.79v-45.85h2.79Z"></path></g><path class="cls-2" d="m768.42,384.66v45.85h-2.79v-45.85h2.79Z"></path><g><path class="cls-2" d="m766.33,447.12l-36.18-22.93,1.39-2.65,36.18,22.93-1.39,2.65Z"></path><path class="cls-2" d="m766.33,444.47l36.18-22.93,1.39,2.65-36.18,22.93-1.39-2.65Z"></path><path class="cls-2" d="m768.42,445.79v45.85h-2.79v-45.85h2.79Z"></path></g><path class="cls-2" d="m816.66,415.22v45.85h-2.79v-45.85h2.79Z"></path></g></g></g></g></svg>