<svg width="20" height="20" viewBox="0 0 20 20" fill="none" xmlns="http://www.w3.org/2000/svg">
<rect width="20" height="20" rx="8" fill="#008EFA"/>
<path fill-rule="evenodd" clip-rule="evenodd" d="M17.0228 6.66602L16.1582 10.0112H16.877C17.2248 10.0112 17.5286 9.77414 17.6155 9.43477L18.3325 6.66602H17.0228Z" fill="white"/>
<path fill-rule="evenodd" clip-rule="evenodd" d="M16.5885 10.4844C16.1429 10.4844 15.7812 10.8488 15.7812 11.2975C15.7812 11.7463 16.1429 12.1108 16.5885 12.1108C17.0339 12.1108 17.3956 11.7463 17.3956 11.2975C17.3956 10.8488 17.0339 10.4844 16.5885 10.4844Z" fill="white"/>
<path fill-rule="evenodd" clip-rule="evenodd" d="M3.50301 9.16188H3.04542V7.8058H3.50301C4.00974 7.8058 4.263 8.03185 4.263 8.48384C4.263 8.93594 4.00974 9.16188 3.50301 9.16188ZM3.86202 6.66602H1.66602V12.1049H3.04542V10.3016H3.86202C4.45772 10.3016 4.91425 10.1429 5.23095 9.82548C5.54766 9.50813 5.70607 9.06085 5.70607 8.48384C5.70607 7.90673 5.54766 7.45955 5.23095 7.14209C4.91425 6.82474 4.45772 6.66602 3.86202 6.66602Z" fill="white"/>
<path fill-rule="evenodd" clip-rule="evenodd" d="M8.85656 10.5829C8.81181 10.6839 8.75316 10.7729 8.68053 10.8498C8.60779 10.9268 8.52095 10.9868 8.42012 11.03C8.31918 11.0734 8.21247 11.0951 8.09999 11.0951C7.9825 11.0951 7.87344 11.0734 7.77261 11.03C7.67167 10.9868 7.58493 10.9268 7.51219 10.8498C7.43945 10.7729 7.38198 10.6827 7.33969 10.5792C7.29749 10.4759 7.27634 10.3641 7.27634 10.2438C7.27634 10.1285 7.29749 10.0214 7.33969 9.92287C7.38198 9.82435 7.43945 9.73656 7.51219 9.6596C7.58493 9.58275 7.67167 9.52255 7.77261 9.4792C7.87344 9.43596 7.9825 9.41428 8.09999 9.41428C8.21247 9.41428 8.31918 9.43596 8.42012 9.4792C8.52095 9.52255 8.60779 9.58275 8.68053 9.6596C8.75316 9.73656 8.81181 9.82665 8.85656 9.9301C8.9011 10.0335 8.92332 10.1429 8.92332 10.2583C8.92332 10.3737 8.9011 10.4819 8.85656 10.5829ZM8.88113 8.77236C8.58546 8.4502 8.21247 8.28906 7.76214 8.28906C7.49467 8.28906 7.2505 8.34073 7.03003 8.44407C6.80946 8.54763 6.61943 8.68829 6.45996 8.86618C6.30027 9.04406 6.17594 9.25194 6.08686 9.49003C5.99767 9.72802 5.95312 9.97936 5.95312 10.2438C5.95312 10.5277 5.99895 10.7897 6.09028 11.03C6.18192 11.2705 6.30978 11.4798 6.47406 11.6577C6.63813 11.8356 6.83061 11.9739 7.05118 12.0724C7.27154 12.1709 7.51337 12.2203 7.77613 12.2203C8.24067 12.2203 8.60896 12.0448 8.88113 11.6936V12.1049H10.1622V8.40444H8.88113V8.77236Z" fill="white"/>
<path fill-rule="evenodd" clip-rule="evenodd" d="M12.9618 10.3015L11.9975 8.4043H10.5195L12.265 11.5999L11.0333 13.9515H12.4622L15.3621 8.4043H13.898L12.9618 10.3015Z" fill="white"/>
</svg>
